<svg width="101" height="93" viewBox="0 0 101 93" fill="none" xmlns="http://www.w3.org/2000/svg">
<rect width="101" height="93" rx="8" fill="#020617"/>
<path d="M30.6818 23.4545H40.4091V55.9091C40.4091 58.9091 39.7348 61.5152 38.3864 63.7273C37.053 65.9394 35.197 67.6439 32.8182 68.8409C30.4394 70.0379 27.6742 70.6364 24.5227 70.6364C21.7197 70.6364 19.1742 70.1439 16.8864 69.1591C14.6136 68.1591 12.8106 66.6439 11.4773 64.6136C10.1439 62.5682 9.48485 60 9.5 56.9091H19.2955C19.3258 58.1364 19.5758 59.1894 20.0455 60.0682C20.5303 60.9318 21.1894 61.5985 22.0227 62.0682C22.8712 62.5227 23.8712 62.75 25.0227 62.75C26.2348 62.75 27.2576 62.4924 28.0909 61.9773C28.9394 61.447 29.5833 60.6742 30.0227 59.6591C30.4621 58.6439 30.6818 57.3939 30.6818 55.9091V23.4545Z" fill="#F43F5E"/>
<path d="M89.6136 39.75H79.6591C79.4773 38.4621 79.1061 37.3182 78.5455 36.3182C77.9849 35.303 77.2652 34.4394 76.3864 33.7273C75.5076 33.0151 74.4924 32.4697 73.3409 32.0909C72.2045 31.7121 70.9697 31.5227 69.6364 31.5227C67.2273 31.5227 65.1288 32.1212 63.3409 33.3182C61.553 34.5 60.1667 36.2273 59.1818 38.5C58.197 40.7576 57.7045 43.5 57.7045 46.7273C57.7045 50.0455 58.197 52.8333 59.1818 55.0909C60.1818 57.3485 61.5758 59.053 63.3636 60.2045C65.1515 61.3561 67.2197 61.9318 69.5682 61.9318C70.8864 61.9318 72.1061 61.7576 73.2273 61.4091C74.3636 61.0606 75.3712 60.553 76.25 59.8864C77.1288 59.2045 77.8561 58.3788 78.4318 57.4091C79.0227 56.4394 79.4318 55.3333 79.6591 54.0909L89.6136 54.1364C89.3561 56.2727 88.7121 58.3333 87.6818 60.3182C86.6667 62.2879 85.2955 64.053 83.5682 65.6136C81.8561 67.1591 79.8106 68.3864 77.4318 69.2955C75.0682 70.1894 72.3939 70.6364 69.4091 70.6364C65.2576 70.6364 61.5455 69.697 58.2727 67.8182C55.0152 65.9394 52.4394 63.2197 50.5455 59.6591C48.6667 56.0985 47.7273 51.7879 47.7273 46.7273C47.7273 41.6515 48.6818 37.3333 50.5909 33.7727C52.5 30.2121 55.0909 27.5 58.3636 25.6364C61.6364 23.7576 65.3182 22.8182 69.4091 22.8182C72.1061 22.8182 74.6061 23.197 76.9091 23.9545C79.2273 24.7121 81.2803 25.8182 83.0682 27.2727C84.8561 28.7121 86.3106 30.4773 87.4318 32.5682C88.5682 34.6591 89.2955 37.053 89.6136 39.75Z" fill="white"/>
</svg>
